<svg width="422" height="475" viewBox="0 0 422 475" fill="none" xmlns="http://www.w3.org/2000/svg">
<g style="mix-blend-mode:multiply">
<path d="M421.999 231C421.999 199.964 415.153 169.311 401.948 141.225C388.743 113.138 369.505 88.3108 345.605 68.512L212.682 228.969C212.98 229.216 213.221 229.527 213.386 229.878C213.551 230.229 213.637 230.612 213.637 231H421.999Z" fill="#56DBB5"/>
<path d="M345.607 68.5121C321.49 48.5338 293.229 34.1743 262.873 26.4754C232.517 18.7765 200.829 17.9313 170.106 24.0011C139.383 30.0709 110.396 42.9035 85.2486 61.5678C60.1013 80.2322 39.424 104.26 24.7168 131.909L208.673 229.761C208.857 229.416 209.115 229.115 209.429 228.882C209.744 228.649 210.106 228.488 210.49 228.412C210.874 228.337 211.27 228.347 211.65 228.443C212.029 228.54 212.382 228.719 212.684 228.969L345.607 68.5121Z" fill="#3C977D" fill-opacity="0.6"/>
<path d="M24.7156 131.909C5.49835 168.036 -2.79933 208.971 0.833083 249.73C4.46549 290.489 19.8712 329.312 45.1741 361.471L208.927 232.631C208.611 232.229 208.418 231.744 208.373 231.234C208.328 230.725 208.431 230.213 208.671 229.761L24.7156 131.909Z" fill="#6D9E90" fill-opacity="0.45"/>
<path d="M45.1748 361.471C77.7619 402.889 124.668 430.612 176.666 439.188L210.572 233.602C209.922 233.495 209.335 233.149 208.928 232.631L45.1748 361.471Z" fill="#5CC5A7"/>
<path d="M176.666 439.188C206.872 444.169 237.8 442.518 267.304 434.349C296.807 426.18 324.18 411.689 347.522 391.881C370.864 372.073 389.617 347.423 402.478 319.642C415.339 291.861 422 261.614 422 231H213.638C213.638 231.383 213.555 231.761 213.394 232.108C213.233 232.455 212.999 232.763 212.707 233.011C212.415 233.259 212.073 233.44 211.704 233.542C211.336 233.644 210.949 233.665 210.571 233.602L176.666 439.188Z" fill="#5CC5A7" fill-opacity="0.85"/>
</g>
<g style="mix-blend-mode:multiply">
<path d="M231 184.6C260.333 187.8 283.8 193 301.4 200.2C319.267 207.4 332.2 216.867 340.2 228.6C348.2 240.333 352.2 255 352.2 272.6C352.2 291.8 345.933 308.6 333.4 323C321.133 337.133 304.067 348.067 282.2 355.8C260.333 363.267 235.4 367 207.4 367C176.2 367 149.8 363.133 128.2 355.4C106.6 347.667 90.4667 337.4 79.8 324.6C69.1333 311.533 63.8 297.267 63.8 281.8C63.8 279.133 64.6 277 66.2 275.4C68.0667 273.8 70.3333 273 73 273H155C160.6 273 165.133 274.733 168.6 278.2C173.133 282.467 178.2 285.4 183.8 287C189.4 288.333 197.267 289 207.4 289C232.733 289 245.4 285.133 245.4 277.4C245.4 274.2 243.667 271.533 240.2 269.4C237 267 231.133 265 222.6 263.4C214.333 261.533 202.067 259.667 185.8 257.8C149.267 253.533 121.267 244.467 101.8 230.6C82.3333 216.467 72.6 196.6 72.6 171C72.6 152.867 78.0667 136.867 89 123C99.9333 109.133 115.4 98.3333 135.4 90.6C155.667 82.8666 179.133 79 205.8 79C233.533 79 257.8 83.4 278.6 92.2C299.4 100.733 315.267 111.4 326.2 124.2C337.133 137 342.6 149.533 342.6 161.8C342.6 164.467 341.667 166.6 339.8 168.2C338.2 169.8 335.933 170.6 333 170.6H247C242.467 170.6 238.333 169 234.6 165.8C231.667 163.133 228.2 161 224.2 159.4C220.2 157.8 214.067 157 205.8 157C187.933 157 179 160.733 179 168.2C179 172.2 182.467 175.4 189.4 177.8C196.333 179.933 210.2 182.2 231 184.6Z" fill="#577370"/>
</g>
</svg>
