<?xml version="1.0" encoding="UTF-8" standalone="no"?>
<svg
   xmlns:dc="http://purl.org/dc/elements/1.1/"
   xmlns:cc="http://creativecommons.org/ns#"
   xmlns:rdf="http://www.w3.org/1999/02/22-rdf-syntax-ns#"
   xmlns:svg="http://www.w3.org/2000/svg"
   xmlns="http://www.w3.org/2000/svg"
   xmlns:sodipodi="http://sodipodi.sourceforge.net/DTD/sodipodi-0.dtd"
   xmlns:inkscape="http://www.inkscape.org/namespaces/inkscape"
   inkscape:export-ydpi="128.14777"
   inkscape:export-xdpi="128.14777"
   width="69.385086mm"
   height="74.922882mm"
   viewBox="0 0 69.385086 74.922881"
   version="1.1"
   id="svg8"
   inkscape:version="1.0beta2 (2b71d25, 2019-12-03)"
   sodipodi:docname="splitwise_logo_notext.svg">
  <title
     id="title844">splitwise logo no text</title>
  <defs
     id="defs2" />
  <sodipodi:namedview
     id="base"
     pagecolor="#ffffff"
     bordercolor="#666666"
     borderopacity="1.0"
     inkscape:pageopacity="0.0"
     inkscape:pageshadow="2"
     inkscape:zoom="1.199908"
     inkscape:cx="268.73459"
     inkscape:cy="165.66458"
     inkscape:document-units="mm"
     inkscape:current-layer="layer1"
     inkscape:document-rotation="0"
     showgrid="false"
     fit-margin-top="1"
     lock-margins="true"
     fit-margin-left="1"
     fit-margin-right="1"
     fit-margin-bottom="1"
     inkscape:window-width="1440"
     inkscape:window-height="855"
     inkscape:window-x="0"
     inkscape:window-y="23"
     inkscape:window-maximized="0" />
  <metadata
     id="metadata5">
    <rdf:RDF>
      <cc:Work
         rdf:about="">
        <dc:format>image/svg+xml</dc:format>
        <dc:type
           rdf:resource="http://purl.org/dc/dcmitype/StillImage" />
        <dc:title>splitwise logo no text</dc:title>
        <dc:contributor>
          <cc:Agent>
            <dc:title>Owen Gallagher</dc:title>
          </cc:Agent>
        </dc:contributor>
        <dc:creator>
          <cc:Agent>
            <dc:title>splitwise.com</dc:title>
          </cc:Agent>
        </dc:creator>
        <dc:source>splitwise.com</dc:source>
        <dc:description>Splitwise logo (turquoise and gray open envelope) without text.</dc:description>
        <cc:license
           rdf:resource="http://creativecommons.org/licenses/by/4.0/" />
      </cc:Work>
      <cc:License
         rdf:about="http://creativecommons.org/licenses/by/4.0/">
        <cc:permits
           rdf:resource="http://creativecommons.org/ns#Reproduction" />
        <cc:permits
           rdf:resource="http://creativecommons.org/ns#Distribution" />
        <cc:requires
           rdf:resource="http://creativecommons.org/ns#Notice" />
        <cc:requires
           rdf:resource="http://creativecommons.org/ns#Attribution" />
        <cc:permits
           rdf:resource="http://creativecommons.org/ns#DerivativeWorks" />
      </cc:License>
    </rdf:RDF>
  </metadata>
  <g
     inkscape:label="Capa 1"
     inkscape:groupmode="layer"
     id="layer1"
     transform="translate(-0.94623872,-1.5907376)">
    <g
       id="g848"
       transform="matrix(5.848078,0,0,5.848078,-9.435517,-12.560098)">
      <path
         style="stroke-width:0.264583"
         id="path114"
         d="m 6.3232407,10.171579 1.3843,-0.8130644 -5.761302,-3.3840208 v 3.341952 c 0.4318,-0.2368021 0.9757833,-0.3598333 1.5986125,-0.3598333 1.3559895,0 2.2145625,0.5857875 2.7781249,1.2149665 m -2.541852,4.66434 c 0.5770562,0 1.0122958,-0.173038 1.0122958,-0.615686 0,-0.452437 -0.5582708,-0.625475 -1.2488333,-0.799041 C 3.0307658,13.287577 2.4407449,13.153169 1.9465033,12.899698 v 0.858573 c 0.415925,0.683154 1.1064875,1.077648 1.8346208,1.077648"
         fill="#1CC29F"
         inkscape:connector-curvature="0" />
      <path
         style="stroke-width:0.264583"
         id="path116"
         d="M 13.468843,12.742535 V 5.9744938 L 7.7075407,9.3585146 Z"
         fill="#52595F"
         inkscape:connector-curvature="0" />
      <path
         style="stroke-width:0.264583"
         id="path118"
         d="M 13.468843,5.9747584 7.7075407,2.5907376 1.9462387,5.9747584 7.7075407,9.3587791 Z"
         fill="#ACE4D6"
         inkscape:connector-curvature="0" />
      <path
         style="stroke-width:0.264583"
         id="path120"
         d="M 7.7075407,9.3585146 6.3229761,10.171579 4.8391928,11.043381 C 4.4600449,10.736465 3.9777095,10.515273 3.5353262,10.515273 c -0.5392208,0 -0.8135938,0.182562 -0.8135938,0.519642 0,0.389731 0.3754438,0.575468 0.89535,0.726281 0.1090084,0.03148 0.2241021,0.06165 0.3439584,0.09181 1.1445874,0.278871 2.6767895,0.635 2.6767895,2.23229 0,0.335491 -0.069321,0.669396 -0.2211917,0.97446 H 13.468843 V 12.742271 L 7.7075407,9.35825 Z"
         fill="#373B3F"
         inkscape:connector-curvature="0" />
      <path
         style="stroke-width:0.264583"
         id="path122"
         d="m 3.9610408,11.852742 a 9.8977978,9.8977978 0 0 1 -0.3439584,-0.09155 c -0.5199062,-0.150813 -0.89535,-0.33655 -0.89535,-0.726281 0,-0.336815 0.274373,-0.519642 0.8135938,-0.519642 0.4423833,0 0.9247187,0.221456 1.3038666,0.528108 L 6.3229761,10.171579 C 5.7591491,9.5424 4.9008407,8.9563479 3.5448512,8.9563479 c -0.6230938,0 -1.1668125,0.1232958 -1.5986125,0.3598333 v 3.5837808 c 0.4945062,0.253471 1.0845271,0.387615 1.5986125,0.521759 0.6905625,0.173302 1.2485687,0.346339 1.2485687,0.798777 0,0.442648 -0.4352396,0.615685 -1.0122958,0.615685 -0.7281333,0 -1.4186958,-0.394229 -1.8348854,-1.077648 v 1.30175 h 4.4703999 c 0.1518709,-0.305064 0.2211917,-0.639233 0.2211917,-0.974725 0,-1.597289 -1.5322021,-1.953418 -2.6767895,-2.232289"
         fill="#FFF"
         inkscape:connector-curvature="0" />
    </g>
  </g>
</svg>
